# xmcd
#
# Track frame offsets:
#	150
#	17009
#	28976
#	42563
#	58813
#	74430
#	89299
#	102091
#	116543
#	131947
#	147595
#	164784
#	181724
#	197361
#
# Disc length: 2823 seconds
#
# Revision: 0
# Processed by: cddbd v1.5.2PL0 Copyright (c) Steve Scherf et al.
# Submitted via: audiograbber 1.83.01
#
DISCID=d00b050e
DTITLE=Thomas Rhett - Life Changes
DYEAR=2017
DGENRE=Country
TTITLE0=Craving You (feat. Maren Morris)
TTITLE1=Unforgettable
TTITLE2=Sixteen
TTITLE3=Drink a Little Beer (feat. Rhett Akins)
TTITLE4=Marry Me
TTITLE5=Leave Right Now
TTITLE6=Smooth Like the Summer
TTITLE7=Life Changes
TTITLE8=When You Look Like That
TTITLE9=Sweetheart
TTITLE10=Kiss Me Like a Stranger
TTITLE11=Renegades
TTITLE12=Gateway Love
TTITLE13=Grave
EXTD=
EXTT0=
EXTT1=
EXTT2=
EXTT3=
EXTT4=
EXTT5=
EXTT6=
EXTT7=
EXTT8=
EXTT9=
EXTT10=
EXTT11=
EXTT12=
EXTT13=
PLAYORDER=
